<?xml version="1.0" encoding="utf-8"?>
<!-- Generator: Adobe Illustrator 18.0.0, SVG Export Plug-In . SVG Version: 6.00 Build 0)  -->
<!DOCTYPE svg PUBLIC "-//W3C//DTD SVG 1.1//EN" "http://www.w3.org/Graphics/SVG/1.1/DTD/svg11.dtd">
<svg version="1.1" id="Layer_1" xmlns="http://www.w3.org/2000/svg" xmlns:xlink="http://www.w3.org/1999/xlink" x="0px" y="0px"
	 viewBox="0 0 500 500" enable-background="new 0 0 500 500" xml:space="preserve">
<g>
	<circle fill="#F47119" cx="250" cy="250" r="226.1"/>
	<g>
		<g>
			<path fill="#FFFFFF" d="M190.7,305.9c-0.8,6.2-1.6,12.7-2.3,19.1c-0.2,1.5,1.1,2.9,2.6,2.9l22-0.3c1.2,0,2.3-0.9,2.5-2.1
				c0.2-1.2,0.4-2.3,0.6-3.5c2.9-29.6,7.2-59.1,10.9-88.6c0-4.2,1-8.8,1.4-13c0.4-3.8,1-10.5,1.2-13.3c0.1-0.8-0.3-1.7-1-2.2
				l-8.6-6.5c-1.4-1-3.2-1.1-4.7-0.3l-12.4,7.3C203,205.4,193.7,282.5,190.7,305.9z"/>
			<path fill="#FFFFFF" d="M169.8,149.3c-6.8-1.4-13.1-0.3-19.3,1.5c-1.9,14.4-3.6,28.3-5.3,42.1c-4.1,31.6-8.3,63.4-12.2,95.1
				c-1,8.2-2.7,16.9-2.5,25.1c0.1,3.6,0.8,7.3,2.8,10.3c4.5,7,15,8.1,22.3,5.8c4.1-1.3,7.8-3.6,10.6-6.8c0.7-0.8,6.9-9.5,4.8-9.9
				c-7.6-1.6-13.2-3.3-12.4-10.3c3.8-29.2,7.5-58.3,11.3-87.5c2.5-18.5,4.7-37,7.1-55.6C177.7,153.6,175.4,150.5,169.8,149.3z"/>
			<path fill="#FFFFFF" d="M319.3,207.8c-0.8,0.1-1.6,0.2-2.6,0.2c-9.8-0.3-19.7,0-29.6,0.1c1.5-9.2,3.1-19.5,5.4-28.6
				c2.4-8.8,8.1-12.6,17.1-12.7c3.9,0,7.6,0.3,11.7,0.3c1.6-6.4,2.9-12.5,4.7-19.7c-7.8-0.3-14.8-1.1-21.7-0.8
				c-19.9,0.8-32.1,9.8-37.6,28.9c-2.8,9.3-3.8,19-5.4,28.6c-0.4,2.6-1,5.4-2.9,5.9c-4.1,1.1-12.9,0.6-13.9,6.2
				c-0.8,4.1-1.1,8.2-1.7,12.7l15.2-0.2c-0.4,1.8-10.7,84.2-16,122.8c-0.8,4.9-1.9,6.9-5.6,10.7c-2.9,3,1.5,5.2,4.7,5.5
				c12,1.1,26.5-3.6,28.3-17c0.6-4.1,0.9-8,1.5-12.1c0.9-7.6,2.1-15.2,3-22.6c0.9-7.8,9.8-87.6,11.5-87.7c7.2-0.1,24.8-1.6,34.7-1.9
				c-0.2,2.1-0.8,5-1,6.7c-2.3,17-4.7,34.3-6.6,51.3c-0.7,7.4-1.9,15.2-1.2,22.7c0.5,6,2.5,12.1,6.6,16.5c4.4,4.8,11,7.2,17.5,7
				c7.2-0.2,13.8-3.6,19.1-8.2c2-1.7,14.4-16.7,8.5-18c-3.3-0.7-7.5,2.1-10.6,2.5c-5.1,0.6-10.3,0.2-12.9-5
				c-1.7-3.5-0.4-6.5-0.4-10.1c1.5-11.7,2.8-23.2,4.3-34.9c1.3-9.7,2.6-19.5,4-29.6c1.8,0,3.5,0,4.9-0.1c6.8-0.1,13.7,0,20.5-0.4
				c1.2,0,3.3-1.5,3.5-2.5c0.4-2.5,0.5-13.8,0.5-13.8s-34.5,8.6-28.8-32.9c0,0-17.1,0.2-17.1,0.2c0.1,0-2.6,15.4-3,16.8
				c-0.8,2.9-1.5,6-3,8.7C323.5,206,321.7,207.3,319.3,207.8z"/>
		</g>
		<path fill="#F9E698" d="M220.6,146.2L188.3,186c-1,1.3,0.6,2.9,2.2,2.2l28.3-8.9c0.6-0.2,1.2-0.2,1.7,0.1l26.7,12.9
			c1.5,0.9,3.3-0.5,2.5-1.9l-26.2-44C222.9,145.4,221.3,145.3,220.6,146.2z"/>
	</g>
</g>
</svg>
